<svg xmlns="http://www.w3.org/2000/svg" xmlns:xlink="http://www.w3.org/1999/xlink" fill="none" version="1.1" width="12" height="12" viewBox="0 0 12 12"><g><g><ellipse cx="6" cy="6" rx="6" ry="6" fill="#000000" fill-opacity="1"/></g><g><g transform="matrix(-1,0,0,1,18.462892532348633,0)"><path d="M14.290956266174316,8.852115950393678L15.710936266174317,8.852115950393678L15.710936266174317,7.352115950393676L14.290956266174316,7.352115950393676Q13.953246266174316,7.352115950393676,13.785086266174316,7.059255950393677L12.138776266174316,4.192028950393677Q11.860156266174316,3.706774950393677,11.375896266174315,3.4264199503936767Q10.891646266174316,3.1460659503936768,10.332086266174317,3.1460659503936768L9.231446266174316,3.1460659503936768L9.231446266174316,4.646065950393677L10.332086266174317,4.646065950393677Q10.669806266174316,4.646065950393677,10.837966266174316,4.9389359503936765L12.484266266174316,7.806155950393677Q12.762896266174316,8.291415950393677,13.247146266174315,8.571765950393676Q13.731406266174316,8.852115950393678,14.290956266174316,8.852115950393678Z" fill-rule="evenodd" fill="#00E2B8" fill-opacity="1"/></g><g><path d="M8.1102921875,8.852115950393678L9.2041021875,8.852115950393678L9.2041021875,7.352115950393676L8.1102921875,7.352115950393676Q7.7725821875,7.352115950393676,7.6044221875,7.059255950393677L5.958112187499999,4.192028950393677Q5.6794921875,3.706774950393677,5.1952321875,3.4264199503936767Q4.7109821875,3.1460659503936768,4.1514221875,3.1460659503936768L2.7607421875,3.1460659503936768L2.7607421875,4.646065950393677L4.1514221875,4.646065950393677Q4.4891321875,4.646065950393677,4.6572921874999995,4.9389359503936765L6.3036021875,7.806155950393677Q6.5822321875,8.291415950393677,7.0664821875,8.571765950393676Q7.5507421875,8.852115950393678,8.1102921875,8.852115950393678Z" fill-rule="evenodd" fill="#00E2B8" fill-opacity="1"/></g><g transform="matrix(0,-1,1,0,-7.982215404510498,11.378455638885498)"><path d="M3.2756601171875,9.680335521697998L4.6418401171875,11.480175521697998L1.9094701171875,11.480175521697998L3.2756601171875,9.680335521697998Z" fill="#00E2B8" fill-opacity="1"/></g><g transform="matrix(0,-1,-1,0,20.084388256072998,20.084388256072998)"><path d="M11.981592734374999,9.680335521697998L13.347772734374999,11.480175521697998L10.615402734375,11.480175521697998L11.981592734374999,9.680335521697998Z" fill="#00E2B8" fill-opacity="1"/></g><g transform="matrix(0,-1,1,0,-3.7759170532226562,7.172157287597656)"><path d="M3.2756601171875,5.474037170410156L4.6418401171875,7.273877170410156L1.9094701171875,7.273877170410156L3.2756601171875,5.474037170410156Z" fill="#00E2B8" fill-opacity="1"/></g><g transform="matrix(0,-1,-1,0,15.878089904785156,15.878089904785156)"><path d="M11.981592734374999,5.474037170410156L13.347772734374999,7.273877170410156L10.615402734375,7.273877170410156L11.981592734374999,5.474037170410156Z" fill="#00E2B8" fill-opacity="1"/></g></g></g></svg>